<?xml version="1.0" standalone="no"?>
<!DOCTYPE svg PUBLIC "-//W3C//DTD SVG 20010904//EN"
 "http://www.w3.org/TR/2001/REC-SVG-20010904/DTD/svg10.dtd">
<svg version="1.0" xmlns="http://www.w3.org/2000/svg"
 width="264.000000pt" height="264.000000pt" viewBox="0 0 264.000000 264.000000"
 preserveAspectRatio="xMidYMid meet">
<metadata>
Created by potrace 1.14, written by Peter Selinger 2001-2017
</metadata>
<g transform="translate(0.000000,264.000000) scale(0.100000,-0.100000)"
fill="#000000" stroke="none">
<path d="M1259 2566 c-6 -43 -3 -96 4 -96 5 0 1 -7 -7 -16 -9 -8 -13 -20 -10
-26 4 -5 -5 -2 -20 7 -27 18 -31 15 -38 -30 -4 -27 -18 -36 -40 -24 -12 7 -18
6 -18 -2 0 -7 -11 -10 -29 -7 -33 5 -64 -28 -40 -43 22 -13 7 -18 -64 -20 -45
-1 -64 -5 -60 -13 4 -6 -2 -4 -12 4 -11 9 -16 10 -11 3 4 -8 2 -13 -6 -14 -7
0 -6 -3 4 -7 34 -14 3 -34 -53 -36 -30 -1 -60 -6 -68 -10 -9 -6 -12 -5 -8 1 8
13 -62 6 -79 -8 -8 -6 -14 -7 -14 -2 0 5 -6 10 -14 10 -9 0 -12 -10 -11 -29 1
-15 -1 -31 -6 -34 -5 -3 -9 -1 -9 5 0 6 -11 6 -28 1 -30 -8 -31 -6 -33 43 0
18 -4 19 -59 19 -65 0 -67 -1 -65 -24 2 -13 8 -22 14 -20 7 1 10 -2 6 -8 -3
-6 -10 -8 -15 -5 -4 2 -8 -13 -8 -35 -1 -33 3 -40 19 -40 10 0 19 -4 19 -10 0
-5 -3 -9 -7 -9 -20 3 -33 -2 -33 -12 0 -8 5 -8 15 1 17 14 20 1 5 -18 -7 -9
-7 -9 2 -2 16 13 31 13 23 0 -4 -6 -3 -10 2 -9 22 4 43 -2 38 -11 -3 -5 1 -10
9 -10 9 0 16 -4 16 -10 0 -5 8 -10 18 -10 14 0 15 -2 2 -10 -21 -13 -1 -19 75
-22 l60 -3 1 -175 c0 -114 -3 -178 -10 -182 -8 -5 -7 -8 1 -8 7 0 10 -7 7 -15
-4 -8 -10 -15 -16 -15 -5 0 -6 5 -2 11 5 8 1 8 -13 0 -11 -6 -23 -7 -27 -4 -3
3 -6 -10 -6 -30 0 -36 -1 -37 -36 -37 -28 0 -35 -3 -31 -15 4 -8 2 -17 -3 -20
-5 -3 -7 -11 -4 -18 3 -9 -21 -13 -94 -14 l-99 -2 1 32 1 31 -55 1 c-62 1 -80
-3 -80 -17 0 -5 5 -6 11 -2 8 5 8 1 0 -14 -14 -27 -14 -35 2 -26 9 6 9 4 1 -7
-5 -8 -10 -25 -10 -39 1 -19 6 -25 23 -24 13 1 20 -3 16 -9 -4 -6 0 -8 10 -4
12 5 17 1 17 -13 0 -11 -5 -20 -11 -20 -5 0 -7 5 -3 12 4 7 3 8 -5 4 -6 -4 -8
-12 -5 -18 4 -6 -1 -8 -15 -3 -11 3 -21 2 -21 -3 0 -4 15 -9 33 -10 73 -4 89
-8 99 -26 7 -13 7 -17 0 -12 -6 3 -13 2 -17 -4 -3 -5 -1 -10 5 -10 6 0 8 -4 5
-10 -9 -14 8 -13 23 2 7 7 12 8 12 2 0 -5 12 -10 28 -11 78 -2 70 17 70 -173
0 -93 -4 -168 -8 -165 -4 3 -10 -2 -13 -10 -4 -9 -1 -12 9 -8 15 5 18 -5 8
-31 -4 -11 -11 -13 -29 -6 -18 7 -25 5 -29 -6 -3 -9 -4 -20 0 -25 3 -5 1 -9
-5 -9 -6 0 -8 -7 -4 -16 5 -14 1 -16 -25 -12 -18 2 -32 1 -32 -4 0 -5 -5 -6
-10 -3 -6 4 -17 1 -25 -5 -11 -9 -15 -9 -15 -1 0 6 -4 11 -8 11 -4 0 -8 -11
-8 -24 0 -14 3 -23 6 -21 3 2 12 0 20 -6 11 -6 1 -9 -30 -9 -25 0 -64 -1 -88
-3 -35 -2 -45 1 -54 16 -7 15 -7 18 2 12 8 -5 11 -1 8 11 -3 16 -13 19 -66 20
l-62 2 -1 -32 c0 -17 -2 -44 -3 -59 -2 -33 4 -38 45 -39 16 -1 25 -4 19 -8
-14 -8 -13 -20 3 -39 10 -12 9 -13 -2 -6 -10 5 -12 4 -7 -3 4 -7 14 -12 22
-12 8 0 14 -5 14 -12 0 -6 6 -4 14 7 12 17 13 16 20 -10 5 -19 3 -31 -6 -36
-8 -5 20 -9 65 -9 l77 0 0 -229 c0 -174 3 -230 13 -233 10 -3 1915 -2 1955 1
9 1 12 54 12 231 l0 230 70 0 c62 0 91 11 58 22 -7 3 -5 7 6 11 10 4 15 3 11
-3 -3 -6 1 -7 10 -3 13 4 14 8 4 14 -7 4 -17 5 -21 3 -4 -3 -8 0 -8 5 0 15 47
14 53 -1 3 -7 6 -4 6 6 1 11 4 16 7 13 4 -3 15 -2 25 4 13 7 19 6 19 -1 0 -6
5 -8 11 -4 19 11 -13 24 -33 13 -11 -6 -18 -6 -18 0 0 5 7 12 16 15 9 4 14 13
10 21 -3 9 0 15 9 15 8 0 12 -6 9 -14 -3 -8 -2 -16 3 -19 4 -3 9 5 9 16 1 12
3 27 4 32 1 6 2 34 1 63 l-1 52 -64 -1 c-64 -2 -71 -7 -52 -38 7 -10 6 -12 -4
-6 -10 6 -12 4 -7 -8 4 -12 1 -15 -16 -11 -11 2 -25 -2 -29 -9 -6 -9 -8 -9 -8
1 0 8 -10 13 -27 12 -50 -4 -73 0 -73 11 0 5 4 8 8 5 4 -2 8 6 8 20 0 13 -4
24 -8 24 -4 0 -8 -5 -8 -11 0 -8 -4 -8 -13 -1 -7 6 -33 12 -57 14 -44 3 -45 4
-42 35 3 28 1 32 -17 28 -11 -2 -23 1 -26 6 -4 5 -10 7 -15 4 -11 -7 -7 29 5
37 6 5 6 8 -2 8 -8 0 -11 46 -11 158 0 86 1 164 4 173 3 12 18 15 70 14 60 -2
65 0 60 18 -7 29 4 47 30 47 23 0 29 -18 10 -31 -11 -8 1 -29 17 -29 8 0 8 3
-2 9 -9 6 -10 11 -2 15 6 4 9 11 6 16 -3 5 3 13 12 19 10 6 12 11 6 11 -7 0
-13 8 -13 17 0 13 3 14 12 5 13 -13 52 3 43 18 -3 5 -2 11 3 14 5 3 8 33 7 67
l-1 63 -32 2 c-23 2 -30 -1 -25 -9 11 -18 12 -38 2 -31 -5 3 -7 9 -4 14 6 10
-16 27 -32 24 -7 -1 -19 -2 -27 -3 -9 -1 -12 -11 -10 -32 l4 -30 -81 3 c-44 1
-82 5 -84 8 -2 3 1 12 7 20 8 12 9 12 4 -2 -8 -25 1 -22 15 3 6 12 7 19 1 15
-5 -3 -14 0 -20 7 -6 7 -24 12 -39 11 -15 -1 -34 3 -40 9 -9 6 -13 6 -13 -2 0
-7 -4 -9 -10 -6 -5 3 -10 22 -10 40 0 33 -2 34 -30 31 -17 -2 -33 0 -36 5 -3
5 1 9 8 9 10 0 10 2 -1 9 -9 6 -10 11 -2 15 6 4 8 13 4 19 -5 7 -8 85 -9 175
l0 162 66 0 c59 0 66 2 67 20 1 13 -3 18 -10 14 -7 -3 -4 1 5 9 10 8 16 16 13
18 -2 3 7 5 20 5 24 0 24 0 5 -18 -11 -11 -20 -26 -19 -36 0 -14 2 -14 6 -2
11 29 64 68 86 64 21 -4 21 -4 2 5 -19 9 -18 12 4 15 5 0 13 5 18 10 5 6 2 6
-6 1 -11 -6 -13 -4 -6 11 11 26 14 125 4 118 -5 -3 -6 1 -3 9 3 8 -2 17 -12
21 -12 5 -15 2 -10 -10 5 -14 4 -15 -8 -5 -8 7 -20 10 -26 6 -5 -3 -10 -2 -10
3 0 13 -43 2 -52 -12 -4 -6 -2 -16 3 -22 13 -16 -3 -26 -39 -24 -15 0 -45 1
-67 2 -22 0 -34 3 -27 5 6 3 10 9 7 13 -3 5 -1 11 4 14 5 4 13 1 17 -5 5 -8 3
-9 -6 -4 -8 5 -11 4 -7 -2 3 -5 16 -9 29 -8 28 2 32 37 6 41 -10 1 -18 -2 -18
-8 0 -7 -4 -7 -12 -1 -20 15 -59 23 -51 10 4 -7 0 -8 -13 -3 -10 5 -33 9 -51
10 -17 0 -34 4 -38 8 -11 11 -36 -3 -28 -16 4 -6 -1 -4 -12 4 -10 8 -21 14
-24 13 -3 -2 -6 1 -6 6 0 5 -3 13 -7 17 -4 4 -3 13 3 21 9 10 5 13 -20 13 -23
0 -30 -4 -25 -12 6 -10 4 -10 -7 0 -7 6 -28 12 -45 12 -30 0 -32 2 -31 32 l2
31 -68 1 c-50 0 -66 4 -63 13 3 7 1 13 -5 13 -6 0 -3 7 5 16 22 21 21 22 -24
20 -22 0 -40 4 -41 9 -1 6 -2 36 -3 67 0 31 -4 60 -9 64 -4 4 -7 3 -7 -2 0 -6
-22 -8 -55 -4 -35 4 -55 2 -56 -4z m115 -28 c-3 -4 -9 -8 -15 -8 -5 0 -9 4 -9
8 0 5 7 9 15 9 8 0 12 -4 9 -9z m-71 -13 c-3 -9 -8 -14 -10 -11 -3 3 -2 9 2
15 9 16 15 13 8 -4z m137 -101 c0 -8 -19 -13 -24 -6 -3 5 1 9 9 9 8 0 15 -2
15 -3z m-325 -92 c-3 -3 -11 0 -18 7 -9 10 -8 11 6 5 10 -3 15 -9 12 -12z
m455 8 c0 -5 -7 -6 -17 -3 -10 4 -14 2 -9 -5 3 -6 2 -13 -3 -16 -7 -5 -8 11
-2 32 3 7 31 0 31 -8z m-629 -93 c-10 -9 -11 -8 -5 6 3 10 9 15 12 12 3 -3 0
-11 -7 -18z m-197 -26 c4 -5 -4 -7 -16 -4 -19 4 -20 3 -8 -6 13 -10 13 -11 0
-11 -12 0 -12 -2 -1 -9 9 -6 5 -8 -13 -8 -15 0 -29 4 -33 10 -4 6 0 8 10 4 9
-3 19 -1 23 5 4 6 3 8 -2 5 -6 -3 -16 -1 -24 5 -12 8 -12 9 2 4 10 -3 20 -1
23 4 8 13 32 13 39 1z m1186 5 c0 -2 -7 -7 -16 -10 -8 -3 -12 -2 -9 4 6 10 25
14 25 6z m47 -10 c0 -8 -6 -12 -15 -9 -11 5 -11 7 0 14 7 5 13 9 14 9 0 0 1
-6 1 -14z m163 -10 c0 -2 -8 -10 -17 -17 -16 -13 -17 -12 -4 4 13 16 21 21 21
13z m-1613 -116 c-1 -21 -12 -26 -22 -10 -3 6 -1 10 5 10 6 0 8 5 5 10 -3 6
-2 10 4 10 5 0 9 -9 8 -20z m1599 3 c-5 -15 -4 -15 9 1 8 11 17 17 20 14 3 -3
-5 -18 -18 -34 l-25 -29 1 33 c1 17 6 32 10 32 5 0 6 -8 3 -17z m-1541 -53 c4
-6 12 -7 18 -4 8 5 8 2 -1 -7 -10 -11 -15 -10 -29 4 -10 10 -12 17 -6 17 7 0
15 -5 18 -10z m1495 -560 c-6 -10 -15 -22 -20 -25 -13 -8 -8 38 5 47 16 12 26
-2 15 -22z m-1705 0 c3 -6 -1 -7 -9 -4 -18 7 -21 14 -7 14 6 0 13 -4 16 -10z
m1980 -108 c2 -7 0 -10 -5 -7 -6 3 -10 1 -10 -5 0 -7 -6 -5 -15 4 -20 19 -19
22 5 22 11 0 22 -6 25 -14z m-1962 -630 c-4 -10 -8 -12 -11 -4 -2 7 -10 12
-17 12 -8 0 -17 5 -21 12 -4 6 -3 8 4 4 6 -3 14 -2 17 4 10 17 35 -8 28 -28z
m1887 28 c3 -1 10 -2 15 -1 6 1 2 -5 -7 -12 -10 -8 -15 -16 -12 -19 3 -4 1 -9
-4 -12 -5 -3 -15 1 -22 9 -10 12 -9 15 4 15 9 0 16 5 16 11 0 5 -4 8 -9 4 -5
-3 -12 -1 -15 4 -5 8 15 8 34 1z m265 -19 c3 -5 2 -12 -3 -15 -5 -3 -9 1 -9 9
0 17 3 19 12 6z m-15 -112 c0 -5 -4 -9 -10 -9 -5 0 -10 7 -10 16 0 8 5 12 10
9 6 -3 10 -10 10 -16z"/>
<path d="M863 2294 c-3 -7 -3 -19 0 -26 3 -7 6 -3 6 10 1 13 5 21 10 17 5 -3
12 -2 15 3 3 5 -2 9 -10 9 -9 0 -18 -6 -21 -13z"/>
<path d="M1750 2300 c0 -5 6 -10 13 -10 8 0 7 -4 -3 -10 -8 -5 -10 -10 -4 -10
16 0 23 10 17 26 -6 16 -23 19 -23 4z"/>
<path d="M1718 2283 c7 -3 16 -2 19 1 4 3 -2 6 -13 5 -11 0 -14 -3 -6 -6z"/>
<path d="M1726 2262 c-3 -5 1 -9 9 -9 8 0 12 4 9 9 -3 4 -7 8 -9 8 -2 0 -6 -4
-9 -8z"/>
<path d="M2013 2207 c0 -7 9 -14 20 -14 11 -1 18 -1 16 0 -2 2 -11 8 -20 15
-12 9 -16 9 -16 -1z"/>
<path d="M606 2202 c-3 -5 1 -9 9 -9 8 0 12 4 9 9 -3 4 -7 8 -9 8 -2 0 -6 -4
-9 -8z"/>
<path d="M533 2005 c0 -7 6 -11 14 -8 7 3 13 6 13 8 0 2 -6 5 -13 8 -8 3 -14
-1 -14 -8z"/>
<path d="M686 1642 c-3 -5 1 -9 9 -9 8 0 12 4 9 9 -3 4 -7 8 -9 8 -2 0 -6 -4
-9 -8z"/>
<path d="M1946 1642 c-3 -5 1 -9 9 -9 8 0 12 4 9 9 -3 4 -7 8 -9 8 -2 0 -6 -4
-9 -8z"/>
<path d="M534 1508 c-3 -4 -3 -8 1 -8 3 0 1 -8 -4 -18 -8 -15 -5 -18 19 -17
16 0 27 2 24 4 -2 2 2 11 9 19 10 13 9 14 -2 7 -10 -6 -13 -4 -9 6 6 16 -29
22 -38 7z m27 -15 c8 -9 9 -14 2 -10 -6 4 -13 1 -16 -5 -3 -7 -4 -3 -4 10 1
26 1 26 18 5z"/>
<path d="M275 1369 c-10 -15 3 -25 16 -12 7 7 7 13 1 17 -6 3 -14 1 -17 -5z"/>
<path d="M2354 1334 c-18 -14 -18 -15 4 -4 12 6 22 13 22 15 0 8 -5 6 -26 -11z"/>
<path d="M330 1300 c0 -5 5 -10 11 -10 8 0 8 -4 1 -13 -8 -10 -6 -13 11 -14
12 0 16 1 8 4 -9 4 -10 8 -3 12 7 4 4 11 -8 19 -12 7 -20 8 -20 2z"/>
<path d="M375 1300 c3 -5 8 -10 11 -10 2 0 4 5 4 10 0 6 -5 10 -11 10 -5 0 -7
-4 -4 -10z"/>
<path d="M2257 1297 c-3 -8 -1 -20 5 -28 8 -11 9 -11 5 2 -3 9 0 22 6 28 8 8
8 11 0 11 -6 0 -13 -6 -16 -13z"/>
<path d="M70 638 c0 -5 10 -6 23 -3 15 4 18 3 8 -3 -11 -8 -11 -11 0 -16 8 -3
4 -3 -8 0 -15 3 -23 1 -23 -7 0 -7 3 -9 7 -6 3 4 12 2 20 -4 9 -9 13 -8 14 0
5 41 3 46 -18 47 -13 1 -23 -3 -23 -8z"/>
<path d="M141 564 c0 -11 3 -14 6 -6 3 7 2 16 -1 19 -3 4 -6 -2 -5 -13z"/>
<path d="M164 549 c-19 -22 -19 -22 4 -8 12 8 22 17 22 21 0 12 -6 9 -26 -13z"/>
<path d="M2474 544 c-18 -14 -18 -15 4 -4 12 6 22 13 22 15 0 8 -5 6 -26 -11z"/>
</g>
</svg>
